<?xml version="1.0" encoding="UTF-8"?>
<svg id="Layer_1" xmlns="http://www.w3.org/2000/svg" version="1.1" viewBox="0 0 1200 1200">
  <!-- Generator: Adobe Illustrator 29.1.0, SVG Export Plug-In . SVG Version: 2.1.0 Build 142)  -->
  <defs>
    <style>
      .st0 {
        fill: #15416f;
      }

      .st1 {
        fill: #eff7fc;
      }
    </style>
  </defs>
  <rect class="st1" x="0" y="0" width="1200" height="1200"/>
  <path class="st0" d="M531.7,281.7l-10.5-6.6c-20.6-12.6-46.3-20-68.5-13.1-23.8,7.4-42.7,25.7-52.7,53.2l-14.1-7.3c-24.4-12.5-37.1-12.7-47.7-8-8.4,3.8-17.2,12.9-27.2,26.1l124,95.8c19.4,6.3,47.8,6.2,76.3-1.2,28.6-7.4,57-21.8,77.8-41.2l46.8-115.7c-41.2-32.6-78.8-13.7-104.1,17.9ZM611.6,396.8c-25.6,25.9-63.6,43.3-93.3,51.2-10.4,2.7-20.8,4.7-30.8,5.7-5.6,9.2-10.2,18.5-13.8,27.8,7.2,36.7,20.8,66.8,41.1,91.5l-21.7,18.1c-12.5-15-23.6-31.3-32-49.3-1.4,34.9,6.5,71,19.3,108.6l-26.6,9c-23.5-68.6-31.4-138.9,1.5-205.1-11.1-.9-21.7-3-31.4-6.5l-.5-.2c-6.5,6.2-12.6,12.6-18.5,19.4-47.5,55.1-73.7,128.3-60,185.3,7.3,30.5,20.5,59.4,39.4,84.1,27.7-.6,53.9,0,77.6,9,11.3-1.2,22.9-2,34.9-2,42.9,0,81.7,8,111,21.8,11.4,5.4,21.8,11.9,30.1,19.3,0-8,1.2-16.5,3.6-22.9-13.4-12.6-21.8-28-21.8-45.4s16.1-44.2,39.4-58.7c0-6.9,1.4-13.5,3.8-19.9-15.2-13.1-25-29.3-25-48.3s3.9-22.7,10.5-32.5c-6.6-9.6-10.5-20.5-10.5-32.3s.9-11.3,2.6-16.5c-14.6-12.9-23.8-28.9-23.8-47.2s9-34,23.5-46.8c-8.9-6.9-18.4-12.8-28.4-17.3ZM779.2,400.2c-39.1,0-74.5,8.3-98.7,20.5-24.4,12.2-35.8,27.2-35.8,40.2s11.4,28.1,35.8,40.3c24.2,12.2,59.6,20.5,98.7,20.5s33.1-1.7,48-4.4v-25.6c20.9-3.2,38.2-8.9,49.3-16.2v26.5c18.8-5.4,36.9-25.4,37.3-41.1,0-12.9-11.4-28-35.8-40.2-24.4-12.2-59.6-20.5-98.8-20.5ZM924.4,502.1c-5,5.3-10.8,10.2-17.5,14.7l.3,43.6c19-11.3,27.8-24.4,27.8-35.8s-3.5-15-10.7-22.6ZM665.9,525.3c.5,12.9,11.9,27.5,35.8,39.6,24.4,12.3,59.6,20.5,98.8,20.5s47.5-3.3,67.3-8.7l1.1-40.9c-25.9,9-56.6,14-89.7,14s-81.8-8.6-111.3-23.3c-.8-.3-1.4-.8-2-1.1ZM668.9,577.6c-2.1,4.1-3,8.1-3,11.9,0,13.1,11.4,28.1,35.8,40.3,24.4,12.2,59.6,20.3,98.8,20.3s38.7-2,55.7-5.7v-36.1c-17.5,3.3-36.1,5-55.7,5-43,0-82-8.4-111.5-23.3-7.4-3.6-14.1-7.8-20.2-12.3ZM932,577.6c-9.2,6.5-17.2,11.3-26.5,15.3v33.5c20-11.6,29.5-25.1,29.5-37s-.9-7.8-3-11.9ZM943.3,633c-3,3-6.3,5.9-9.9,8.7v48.7c15.5-10.5,23-22.1,23-32.6s-4.4-16.5-13.1-24.8ZM687.4,654c-.2,1.4-.3,2.6-.3,3.8,0,13.1,11.4,28,35.8,40.2,24.4,12.3,59.7,20.5,98.8,20.5s43.8-2.7,62.3-7.2v-45c-24.5,7.8-53,12-83.5,12s-82-8.6-111.5-23.3c-.6-.3-1.1-.6-1.7-.9ZM666.9,686.2c-13.1,9.8-19.3,20.5-19.3,30.1s11.4,28,35.8,40.3c24.4,12.2,59.6,20.3,98.8,20.3s28.1-1,41.1-3v-27.4h-1.7c-43,0-82-8.6-111.5-23.5-18.8-9.3-34.5-21.8-43.3-36.9ZM911.4,732.3c-11.9,4.2-24.8,7.7-38.7,9.9v18.2c2.9-1.2,5.7-2.4,8.4-3.8,14.7-7.5,24.7-15.9,30.2-24.4ZM925.3,759.6c-5.7,5.7-12.3,10.8-19.7,15.5v43c20-11.4,29.5-25,29.5-36.9s-3.2-14.4-9.8-21.7ZM400.7,763.9c-15.3.1-31.9,2.1-49,6.2-34.3,8-63.8,22.6-83.1,38.7-19.3,15.9-26.8,32.2-24.5,43.8,2.3,11.6,14.1,22.3,37.3,28.4,23.1,6,55.4,6.3,89.7-1.7,13.8-3.3,26.8-7.5,38.7-12.5v-31.1c22-9.8,38.4-21.5,45.7-32.9v36.7c18.2-15.6,25.3-31.3,23.2-42.7-2.1-11.6-14.1-22.3-37.3-28.3-11.6-3-25.4-4.7-40.6-4.5ZM497.9,771.7c4.1,5.9,6.9,12.5,8.4,19.9,1.7,9,.9,17.8-1.8,26.3,14.9,3.9,28.4,9.2,40.2,15.8,6.6,3.6,12.8,8,18.2,12.5,13.5-3.2,25-7.7,33.1-13.1v31c24.2-11.4,35.4-25.4,35.4-36.6s-11.1-25.3-35.5-36.7c-24.2-11.3-59.1-19-97.9-19.1ZM666,779.2c-.2.6-.2,1.4-.2,2.1,0,13.1,11.4,28,35.8,40.3,24.4,12.2,59.6,20.3,98.8,20.3s38.7-2.1,55.7-5.7v-40.5c-22.3,6-47.4,9.3-73.9,9.3-43,0-82-8.6-111.5-23.3-1.7-.9-3.3-1.8-4.8-2.6ZM670.3,835.3c-3,5-4.4,9.8-4.4,14.4,0,13.1,11.4,28,35.8,40.3,24.4,12.2,59.6,20.3,98.8,20.3s38.7-2.1,55.7-5.7v-39.7c-17.5,3.3-36.1,5.1-55.7,5.1-43,0-82-8.6-111.5-23.5-6.8-3.3-13.1-7.1-18.8-11.3ZM930.7,835.3c-8.7,5.9-16.4,10.5-25.1,14.3v37c20-11.4,29.5-25,29.5-36.9s-1.4-9.5-4.4-14.4ZM490.5,843.4c-5.3,6.6-11.4,12.9-18.4,18.7-23.5,19.7-56.6,35.7-94.8,44.5-13.6,3.2-27.2,5.1-40.2,6.2,4.8,8,13.3,15.8,25.7,22.7,20.5,11.6,50.6,19.4,84,19.4s29.6-1.6,42.9-4.5v-31.3c20.8-3.2,38.2-8.9,49.3-16.2v27.7c15-10.5,22.3-22.4,22.3-33.7s-9.8-27.1-30.4-38.7c-11.1-6.2-25-11.3-40.5-14.7Z"/>
</svg>